<?xml version="1.0" encoding="utf-8"?>
<!-- Generator: Adobe Illustrator 19.1.1, SVG Export Plug-In . SVG Version: 6.00 Build 0)  -->
<svg version="1.1" id="Layer_1" xmlns="http://www.w3.org/2000/svg" xmlns:xlink="http://www.w3.org/1999/xlink" x="0px" y="0px"
	 viewBox="0 0 960 560" style="enable-background:new 0 0 960 560;" xml:space="preserve">
<style type="text/css">
	.st0{fill:#7BBC42;}
	.st1{display:none;}
	.st2{display:inline;}
</style>
<g id="knife_fork">
	<g>
		<path class="st0" d="M512.6,290.2c0-0.7,0.4-1.3,1.1-1.6c0.1,0,0.2-0.1,0.3-0.1h0c4-1.7,6.7-5.5,6.7-9.9c0-7.3-0.9-14.5-2.5-21.4
			l0,0c0-0.1,0-0.1,0-0.2c-0.2-0.6-0.8-1.1-1.6-1.1c-0.9,0-1.6,0.7-1.6,1.5c0,0,0,0.1,0,0.3c0.1,1.1,0.4,5.5,0.5,11.8
			c0,1.9,0.1,4,0.1,6.2c0,1-0.9,1.9-2,1.9c-1.1,0-1.9-0.7-2-1.7c0-0.1,0-0.1,0-0.2c0,0,0,0,0,0l-0.4-7.8l-0.5-10.4
			c0-0.8-0.7-1.5-1.6-1.5c-0.9,0-1.6,0.7-1.6,1.5l-0.5,10.4l-0.4,7.8l0,0c0,0.1,0,0.1,0,0.2v0c-0.1,1-1,1.7-2,1.7
			c-1.1,0-2.1-0.9-2.1-1.9c0-2.2,0-4.3,0.1-6.1c0.1-6.2,0.4-10.7,0.5-11.8c0-0.2,0-0.3,0-0.3c0-0.8-0.8-1.5-1.6-1.5
			c-0.7,0-1.4,0.5-1.6,1.1v0c0,0.1,0,0.2,0,0.2c-1.6,6.9-2.5,14-2.5,21.4c0,4.4,2.8,8.1,6.8,9.9c0.1,0,0.2,0.1,0.2,0.1l0,0
			c0.6,0.3,1.1,0.9,1.1,1.7c0,0,0,0.1,0,0.1c-0.2,5.6-0.7,15.3-1.1,23.4c-0.3,5.6-0.6,10.5-0.7,12.9c0,0.1,0,0.1,0,0.2
			c0,1.3,0.6,2.5,1.6,3.5c1,0.9,2.4,1.6,3.9,1.6c0,0,0,0,0,0c0,0,0,0,0,0c1.5,0,2.9-0.6,3.9-1.6c1-0.9,1.6-2.2,1.6-3.5
			c0-0.1,0-0.1,0-0.2c-0.2-2.4-0.4-7.3-0.7-12.9c-0.4-8.1-0.9-17.8-1.1-23.4l0,0C512.6,290.2,512.6,290.2,512.6,290.2z"/>
		<path class="st0" d="M488.2,283.7v-26.4c0-0.8-0.7-1.5-1.6-1.5c-0.5,0-0.9,0.2-1.2,0.5l0,0c-3.9,3.9-10.5,13.8-10.5,36.5
			c0,6.6,3.8,7.7,3.6,12.8c0,0,0,0,0,0.1c-0.4,8-1.2,17.7-1.4,21c0,0.1,0,0.1,0,0.2c-0.1,2.6,2.5,5,5.5,5c0,0,0,0,0,0s0,0,0,0
			c3,0,5.6-2.5,5.5-5c0-0.1,0-0.1,0-0.2C488.2,326.6,488.3,285.3,488.2,283.7z"/>
	</g>
</g>
<g id="coupon" class="st1">
	<g class="st2">
		<g>
			<path class="st0" d="M510.6,257.6v54c-2.9-1-3.7-1.6-5.8-1.6c-6.4,0-11.6,5.2-11.6,11.6c0,6.4,5.2,11.6,11.6,11.6
				c6.4,0,11.6-5.2,11.6-11.6v-23.3c0,0,2.9-5.8,2.9-11.6s0-11.6,0-17.5S510.6,257.6,510.6,257.6z M504.8,327.5
				c-3.2,0-5.8-2.6-5.8-5.8s2.6-5.8,5.8-5.8s5.8,2.6,5.8,5.8S508,327.5,504.8,327.5z"/>
			<path class="st0" d="M486.5,283.3c4.1,4.1,8.2,8.2,12.3,12.3c4.1,4.1,10.3,6.2,10.3,6.2l16.5,16.5c4.6,4.6,11.9,4.6,16.5,0
				c4.6-4.6,4.6-11.9,0-16.5c-4.6-4.6-11.9-4.6-16.5,0c-1.5,1.5-2.5,3.3-3,5.3l-38.2-38.2C484.5,268.8,482.4,279.1,486.5,283.3z
				 M529.7,314.1c-2.3-2.3-2.3-6,0-8.2c2.3-2.3,6-2.3,8.2,0c2.3,2.3,2.3,6,0,8.2C535.7,316.4,532,316.4,529.7,314.1z"/>
		</g>
		<g>
			<path class="st0" d="M484.4,254.7h-5.8c-0.8,0-1.5,0.7-1.5,1.5c0,0.8,0.7,1.5,1.5,1.5h5.8c0.8,0,1.5-0.7,1.5-1.5
				C485.9,255.4,485.2,254.7,484.4,254.7L484.4,254.7z M472.8,254.7h-5.8c-0.8,0-1.5,0.7-1.5,1.5c0,0.8,0.7,1.5,1.5,1.5h5.8
				c0.8,0,1.5-0.7,1.5-1.5C474.2,255.4,473.6,254.7,472.8,254.7L472.8,254.7z M461.1,254.7h-5.8l0,0c-0.8,0-1.5,0.7-1.5,1.5
				c0,0.8,0.7,1.5,1.5,1.5h5.8c0.8,0,1.5-0.7,1.5-1.5C462.6,255.4,461.9,254.7,461.1,254.7L461.1,254.7z M451.6,256.7
				c-0.5,0-0.9,0.2-1.2,0.7c-0.2,0.3-0.3,0.6-0.5,0.8l0,0c0,0,0,0,0,0l0,0c0,0,0,0,0,0l0,0c0,0,0,0,0,0l0,0v0l0,0l0,0l0,0v0l0,0l0,0
				l0,0l0,0l0,0l0,0l0,0l0,0l0,0l0,0l0,0l0,0l0,0l0,0l0,0l0,0l0,0l0,0l0,0l0,0l0,0l0,0l0,0l0,0l0,0l0,0l0,0l0,0l0,0l0,0l0,0l0,0l0,0
				l0,0l0,0l0,0l0,0l0,0l0,0l0,0l0,0l0,0l0,0l0,0l0,0l0,0l0,0l0,0l0,0l0,0l0,0l0,0l0,0l0,0l0,0l0,0l0,0l0,0l0,0l0,0l0,0l0,0l0,0l0,0
				l0,0l0,0l0,0l0,0l0,0l0,0l0,0l0,0l0,0l0,0c0,0,0,0,0,0l0,0l0,0l0,0l0,0l0,0l0,0l0,0l0,0l0,0l0,0l0,0l0,0l0,0v0l0,0l0,0l0,0v0l0,0
				l0,0l0,0l0,0l0,0l0,0l0,0v0l0,0v0l0,0l0,0l0,0c0,0,0,0,0,0l0,0c0,0,0,0,0,0l0,0v0l0,0c0,0,0,0,0,0l0,0c-0.2,0.4-0.2,0.5-0.2,0.5
				l0,0c0,0.1,0,0.1,0,0.2l0,0c0,0,0,0.1,0,0.1l0,0c0,0,0,0,0,0l0,0v0l0,0v0l0,0v0l0,0l0,0l0,0c0,0,0,0,0,0l0,0v0l0,0v0l0,0l0,0l0,0
				v0l0,0v0l0,0l0,0l0,0v0l0,0v0l0,0l0,0l0,0v0l0,0v0l0,0c0,0,0,0,0,0l0,0l0,0l0,0v0l0,0l0,0l0,0l0,0l0,0l0,0l0,0v0l0,0v0l0,0v0l0,0
				l0,0l0,0v0l0,0v0l0,0l0,0l0,0v0l0,0c0,0,0,0,0,0l0,0v0l0,0l0,0l0,0c0,0,0,0,0,0l0,0v0l0,0l0,0l0,0v0l0,0l0,0l0,0l0,0l0,0l0,0l0,0
				v0l0,0l0,0l0,0l0,0l0,0l0,0l0,0v0l0,0l0,0l0,0l0,0l0,0l0,0l0,0l0,0l0,0l0,0l0,0l0,0l0,0v0l0,0l0,0l0,0l0,0l0,0l0,0l0,0v0l0,0l0,0
				l0,0l0,0l0,0l0,0l0,0v0l0,0l0,0l0,0c0,0,0,0,0,0l0,0l0,0l0,0l0,0l0,0l0,0l0,0l0,0l0,0v0l0,0l0,0l0,0l0,0l0,0l0,0l0,0l0,0l0,0l0,0
				l0,0l0,0l0,0l0,0l0,0l0,0l0,0l0,0l0,0l0,0l0,0l0,0l0,0l0,0l0,0l0,0l0,0l0,0l0,0l0,0l0,0l0,0l0,0l0,0l0,0l0,0l0,0l0,0l0,0l0,0l0,0
				l0,0l0,0l0,0l0,0l0,0l0,0l0,0l0,0l0,0l0,0l0,0l0,0l0,0l0,0l0,0l0,0l0,0l0,0l0,0v2.5c0,0.8,0.7,1.5,1.5,1.5c0.8,0,1.5-0.7,1.5-1.5
				V260c0-0.6,0.2-1.1,0.5-1.6c0.4-0.7,0.2-1.6-0.4-2C452.2,256.8,451.9,256.7,451.6,256.7L451.6,256.7z M450.9,267.4
				c-0.8,0-1.5,0.7-1.5,1.5v5.8c0,0.8,0.7,1.5,1.5,1.5c0.8,0,1.5-0.7,1.5-1.5v-5.8C452.4,268,451.7,267.4,450.9,267.4L450.9,267.4z
				 M450.9,279c-0.8,0-1.5,0.7-1.5,1.5v5.8c0,0.8,0.7,1.5,1.5,1.5c0.8,0,1.5-0.7,1.5-1.5v-5.8C452.4,279.7,451.7,279,450.9,279
				L450.9,279z M450.9,290.7c-0.8,0-1.5,0.7-1.5,1.5v3.3c0,0,0,0,0,0l0,0l0,0l0,0l0,0l0,0l0,0l0,0l0,0l0,0l0,0l0,0l0,0l0,0l0,0l0,0
				l0,0l0,0l0,0l0,0l0,0l0,0l0,0l0,0l0,0l0,0c0,0,0,0,0,0l0,0l0,0l0,0l0,0l0,0l0,0l0,0l0,0l0,0l0,0l0,0l0,0l0,0l0,0l0,0l0,0l0,0l0,0
				l0,0l0,0l0,0l0,0l0,0l0,0l0,0l0,0l0,0l0,0l0,0l0,0l0,0l0,0l0,0l0,0l0,0l0,0l0,0l0,0l0,0l0,0l0,0l0,0l0,0l0,0l0,0l0,0l0,0l0,0l0,0
				l0,0v0l0,0l0,0l0,0l0,0l0,0l0,0l0,0l0,0l0,0l0,0l0,0l0,0l0,0l0,0l0,0l0,0l0,0l0,0l0,0l0,0l0,0l0,0l0,0c0,0,0,0,0,0l0,0l0,0l0,0
				l0,0l0,0l0,0l0,0l0,0l0,0l0,0l0,0l0,0l0,0l0,0l0,0l0,0l0,0c0,0,0,0.1,0,0.1l0,0l0,0l0,0l0,0l0,0c0,0,0,0,0,0l0,0l0,0l0,0
				c0,0,0,0.1,0,0.1l0,0l0,0l0,0c0.1,0.6,0.2,1.1,0.5,1.6c0.2,0.5,0.8,0.8,1.3,0.8c0.2,0,0.4,0,0.6-0.1c0.7-0.3,1.1-1.2,0.7-1.9
				c-0.2-0.4-0.3-0.8-0.3-1.2v-3.3C452.4,291.3,451.7,290.7,450.9,290.7L450.9,290.7z M454.7,298.3c-0.7,0-1.3,0.5-1.4,1.2
				c-0.1,0.8,0.4,1.5,1.2,1.6c0.2,0,0.3,0,0.5,0.1l0,0l0,0l0,0h0l0,0l0,0l0,0c0,0,0,0,0,0l0,0l0,0l0,0h0l0,0l0,0l0,0l0,0l0,0l0,0
				l0,0l0,0c0,0,0,0,0,0l0,0l0,0l0,0l0,0l0,0l0,0l0,0c0,0,0,0,0,0l0,0l0,0l0,0l0,0l0,0l0,0l0,0c0,0,0,0,0,0l0,0l0,0l0,0c0,0,0,0,0,0
				l0,0c0,0,0,0,0,0l0,0c0,0,0,0,0,0l0,0c0,0,0,0,0,0l0,0c0,0,0,0,0,0l0,0l0,0h5c0.8,0,1.5-0.7,1.5-1.5s-0.7-1.5-1.5-1.5h-5
				C455,298.3,454.9,298.3,454.7,298.3C454.8,298.3,454.7,298.3,454.7,298.3L454.7,298.3z M471.9,298.3h-5.8c-0.8,0-1.5,0.7-1.5,1.5
				c0,0.8,0.7,1.5,1.5,1.5h5.8c0.8,0,1.5-0.7,1.5-1.5C473.4,299,472.7,298.3,471.9,298.3L471.9,298.3z M483.6,298.3h-5.8
				c-0.8,0-1.5,0.7-1.5,1.5c0,0.8,0.7,1.5,1.5,1.5h5.8c0.8,0,1.5-0.7,1.5-1.5C485,299,484.4,298.3,483.6,298.3L483.6,298.3z
				 M495.2,298.3h-5.8c-0.8,0-1.5,0.7-1.5,1.5c0,0.8,0.7,1.5,1.5,1.5h5.8c0.8,0,1.5-0.7,1.5-1.5C496.7,299,496,298.3,495.2,298.3
				L495.2,298.3z M500.4,292.3c-0.8,0-1.5,0.7-1.5,1.5v1.7c0,0.9-0.4,1.5-0.7,1.9c-0.5,0.6-0.5,1.5,0.2,2.1c0.3,0.2,0.6,0.3,1,0.3
				c0.4,0,0.8-0.2,1.1-0.5c0.3-0.4,0.6-0.7,0.8-1.2l0,0c0,0,0-0.1,0-0.1l0,0l0,0l0,0l0,0l0,0c0,0,0,0,0,0l0,0l0,0l0,0l0,0l0,0l0,0
				l0,0l0,0l0,0l0,0l0,0c0,0,0,0,0,0l0,0l0,0l0,0l0,0l0,0l0,0l0,0l0,0l0,0l0,0l0,0l0,0l0,0v0l0,0l0,0l0,0l0,0l0,0l0,0l0,0l0,0l0,0
				l0,0l0,0l0,0l0,0l0,0l0,0c0,0,0,0,0,0l0,0l0,0l0,0l0,0l0,0l0,0l0,0l0,0l0,0l0,0l0,0l0,0l0,0l0,0l0,0v0l0,0l0,0l0,0l0,0l0,0l0,0
				l0,0l0,0l0,0l0,0l0,0l0,0l0,0l0,0l0,0v0l0,0l0,0l0,0l0,0l0,0l0,0l0,0l0,0l0,0l0,0l0,0l0,0l0,0c0,0,0,0,0,0l0,0l0,0l0,0l0,0l0,0
				l0,0l0,0l0,0l0,0l0,0l0,0l0,0l0,0v0l0,0l0,0l0,0l0,0l0,0l0,0l0,0l0,0l0,0l0,0l0,0l0,0l0,0l0,0l0,0v0l0,0l0,0l0,0l0,0l0,0l0,0l0,0
				l0,0l0,0l0,0l0,0l0,0l0,0v0l0,0l0,0l0,0l0,0l0,0l0,0l0,0l0,0l0,0l0,0l0,0l0,0l0,0l0,0l0,0l0,0l0,0l0,0l0,0l0,0l0,0l0,0l0,0l0,0
				l0,0l0,0l0,0l0,0l0,0l0,0l0,0l0,0l0,0l0,0l0,0v0l0,0l0,0l0,0l0,0l0,0l0,0l0,0l0,0l0,0l0,0l0,0l0,0l0,0l0,0l0,0v0l0,0v0l0,0l0,0
				l0,0l0,0l0,0l0,0l0,0l0,0l0,0l0,0l0,0l0,0l0,0v0l0,0l0,0l0,0l0,0l0,0l0,0l0,0l0,0l0,0l0,0l0,0l0,0l0,0l0,0l0,0l0,0l0,0v0l0,0l0,0
				l0,0l0,0l0,0l0,0l0,0l0,0l0,0l0,0l0,0l0,0l0,0l0,0l0,0l0,0l0,0l0,0l0,0l0,0l0,0l0,0l0,0l0,0l0,0l0,0l0,0l0,0l0,0l0,0l0,0l0,0l0,0
				l0,0l0,0v0l0,0l0,0l0,0l0,0l0,0l0,0l0,0l0,0l0,0l0,0l0,0l0,0l0,0l0,0l0,0l0,0l0,0l0,0l0,0l0,0l0,0l0,0l0,0l0,0l0,0l0,0l0,0l0,0
				l0,0l0,0l0,0l0,0l0,0l0,0l0,0v0l0,0l0,0l0,0l0,0l0,0l0,0l0,0l0,0l0,0l0,0l0,0l0,0l0,0l0,0l0,0l0,0l0,0v0l0,0l0,0l0,0l0,0l0,0l0,0
				l0,0l0,0l0,0l0,0l0,0l0,0l0,0l0,0l0,0l0,0l0,0l0,0l0,0l0,0l0,0l0,0l0,0l0,0l0,0l0,0l0,0l0,0l0,0l0,0l0,0l0,0l0,0l0,0l0,0v0l0,0
				l0,0l0,0l0,0l0,0l0,0l0,0l0,0l0,0l0,0l0,0l0,0l0,0l0,0l0,0l0,0l0,0l0,0l0,0l0,0l0,0l0,0l0,0l0,0l0,0l0,0l0,0l0,0l0,0l0,0l0,0l0,0
				l0,0l0,0l0,0l0,0l0,0l0,0v0l0,0l0,0l0,0l0,0l0,0l0,0l0,0l0,0l0,0l0,0l0,0l0,0l0,0l0,0v0l0,0l0,0l0,0l0,0l0,0l0,0l0,0l0,0l0,0l0,0
				l0,0l0,0l0,0l0,0l0,0l0,0l0,0l0,0l0,0l0,0l0,0l0,0l0,0l0,0l0,0l0,0l0,0l0,0l0,0l0,0l0,0l0,0l0,0l0,0l0,0l0,0l0,0l0,0l0,0l0,0l0,0
				l0,0l0,0l0,0l0,0l0,0l0,0l0,0l0,0l0,0l0,0l0,0l0,0l0,0l0,0v0l0,0l0,0l0,0l0,0l0,0l0,0l0,0l0,0l0,0l0,0l0,0l0,0l0,0l0,0l0,0l0,0
				l0,0l0,0l0,0l0,0l0,0l0,0l0,0l0,0l0,0l0,0l0,0l0,0l0,0l0,0l0,0l0,0l0,0l0,0l0,0l0,0l0,0l0,0l0,0l0,0l0,0l0,0l0,0l0,0l0,0l0,0l0,0
				l0,0l0,0l0,0l0,0l0,0l0,0l0,0l0,0l0,0l0,0v-1.7C501.8,293,501.2,292.3,500.4,292.3L500.4,292.3z M500.4,280.7
				c-0.8,0-1.5,0.7-1.5,1.5v5.8c0,0.8,0.7,1.5,1.5,1.5c0.8,0,1.5-0.7,1.5-1.5v-5.8C501.8,281.3,501.2,280.7,500.4,280.7L500.4,280.7
				z M500.4,269c-0.8,0-1.5,0.7-1.5,1.5v5.8c0,0.8,0.7,1.5,1.5,1.5c0.8,0,1.5-0.7,1.5-1.5v-5.8C501.8,269.7,501.2,269,500.4,269
				L500.4,269z M500.2,257.8c-0.1,0-0.3,0-0.4,0.1c-0.8,0.2-1.2,1-1,1.8c0.1,0.3,0.1,0.5,0.1,0.8v4.1c0,0.8,0.7,1.5,1.5,1.5
				s1.5-0.7,1.5-1.5v-4.1l0,0l0,0l0,0l0,0l0,0l0,0l0,0l0,0v0l0,0l0,0l0,0l0,0l0,0l0,0l0,0l0,0l0,0l0,0l0,0l0,0l0,0l0,0l0,0l0,0l0,0
				l0,0l0,0l0,0l0,0l0,0l0,0l0,0l0,0l0,0l0,0l0,0l0,0l0,0l0,0l0,0l0,0l0,0l0,0l0,0l0,0l0,0l0,0l0,0l0,0l0,0l0,0l0,0l0,0l0,0l0,0l0,0
				l0,0l0,0l0,0l0,0l0,0l0,0l0,0l0,0l0,0l0,0l0,0l0,0l0,0l0,0l0,0l0,0l0,0l0,0l0,0l0,0l0,0l0,0l0,0l0,0l0,0l0,0l0,0l0,0v0l0,0l0,0
				l0,0c0,0,0,0,0,0l0,0l0,0l0,0v0l0,0l0,0l0,0v0l0,0c0,0,0,0,0,0l0,0c0-0.4-0.1-0.7-0.2-1.1C501.4,258.3,500.8,257.8,500.2,257.8
				L500.2,257.8z M496,254.7h-5.8c-0.8,0-1.5,0.7-1.5,1.5c0,0.8,0.7,1.5,1.5,1.5h5.8l0,0c0.3,0,0.6,0,0.8,0.1c0.1,0,0.3,0.1,0.4,0.1
				c0.6,0,1.2-0.4,1.4-1.1c0.2-0.8-0.2-1.6-1-1.8c-0.3-0.1-0.6-0.2-0.9-0.2l0,0c0,0-0.1,0-0.1,0l0,0h0l0,0h0l0,0l0,0l0,0l0,0l0,0
				l0,0l0,0l0,0l0,0l0,0l0,0h0l0,0l0,0l0,0l0,0l0,0l0,0l0,0h0l0,0l0,0l0,0l0,0l0,0l0,0l0,0l0,0l0,0l0,0l0,0h0l0,0l0,0l0,0l0,0l0,0
				l0,0l0,0h0l0,0l0,0l0,0l0,0l0,0l0,0l0,0l0,0l0,0l0,0l0,0l0,0l0,0l0,0l0,0l0,0l0,0l0,0l0,0l0,0l0,0l0,0l0,0l0,0l0,0l0,0l0,0l0,0
				l0,0l0,0l0,0l0,0l0,0l0,0l0,0l0,0l0,0l0,0l0,0l0,0l0,0l0,0l0,0l0,0l0,0l0,0l0,0l0,0l0,0l0,0l0,0l0,0l0,0l0,0l0,0l0,0l0,0l0,0l0,0
				l0,0l0,0l0,0l0,0l0,0l0,0l0,0l0,0l0,0l0,0l0,0l0,0l0,0l0,0l0,0l0,0l0,0l0,0l0,0l0,0l0,0l0,0l0,0l0,0
				C496.1,254.7,496,254.7,496,254.7L496,254.7C496,254.7,496,254.7,496,254.7C496,254.7,496,254.7,496,254.7
				C496,254.7,496,254.7,496,254.7L496,254.7z"/>
		</g>
	</g>
</g>
</svg>
